<mxfile host="Electron" agent="Mozilla/5.0 (Macintosh; Intel Mac OS X 10_15_7) AppleWebKit/537.36 (KHTML, like Gecko) draw.io/27.0.5 Chrome/134.0.6998.205 Electron/35.3.0 Safari/537.36" version="27.0.5">
  <diagram name="Page-1" id="RbxCdI34Sj1kPQ7Frh3S">
    <mxGraphModel dx="946" dy="584" grid="1" gridSize="10" guides="1" tooltips="1" connect="1" arrows="1" fold="1" page="1" pageScale="1" pageWidth="850" pageHeight="1100" math="0" shadow="0">
      <root>
        <mxCell id="0" />
        <mxCell id="1" parent="0" />
        <mxCell id="ugGrOQstR5L4s_zac0gk-53" value="conditionally set first1 = true" style="rounded=0;whiteSpace=wrap;html=1;fillColor=#b0e3e6;strokeColor=#0e8088;fontSize=15;" parent="1" vertex="1">
          <mxGeometry x="180" y="240" width="520" height="40" as="geometry" />
        </mxCell>
        <mxCell id="ugGrOQstR5L4s_zac0gk-1" value="started2.getAcquire()" style="rounded=0;whiteSpace=wrap;html=1;fillColor=#ffe6cc;strokeColor=#d79b00;fontSize=15;" parent="1" vertex="1">
          <mxGeometry x="180" y="90" width="520" height="40" as="geometry" />
        </mxCell>
        <mxCell id="-HgeQT6ilEQTKK5qact2-1" value="" style="group" parent="1" vertex="1" connectable="0">
          <mxGeometry x="180" y="130" width="520" height="40" as="geometry" />
        </mxCell>
        <mxCell id="ugGrOQstR5L4s_zac0gk-2" value="" style="triangle;whiteSpace=wrap;html=1;direction=south;fillColor=#ffe6cc;strokeColor=#d79b00;" parent="-HgeQT6ilEQTKK5qact2-1" vertex="1">
          <mxGeometry width="10" height="40" as="geometry" />
        </mxCell>
        <mxCell id="cBVyUDvvDOi_Fv5vH1XP-8" value="" style="triangle;whiteSpace=wrap;html=1;direction=south;fillColor=#ffe6cc;strokeColor=#d79b00;" parent="-HgeQT6ilEQTKK5qact2-1" vertex="1">
          <mxGeometry x="30" width="10" height="40" as="geometry" />
        </mxCell>
        <mxCell id="cBVyUDvvDOi_Fv5vH1XP-10" value="" style="triangle;whiteSpace=wrap;html=1;direction=south;fillColor=#ffe6cc;strokeColor=#d79b00;" parent="-HgeQT6ilEQTKK5qact2-1" vertex="1">
          <mxGeometry x="60" width="10" height="40" as="geometry" />
        </mxCell>
        <mxCell id="cBVyUDvvDOi_Fv5vH1XP-11" value="" style="triangle;whiteSpace=wrap;html=1;direction=south;fillColor=#ffe6cc;strokeColor=#d79b00;" parent="-HgeQT6ilEQTKK5qact2-1" vertex="1">
          <mxGeometry x="90" width="10" height="40" as="geometry" />
        </mxCell>
        <mxCell id="cBVyUDvvDOi_Fv5vH1XP-12" value="" style="triangle;whiteSpace=wrap;html=1;direction=south;fillColor=#ffe6cc;strokeColor=#d79b00;" parent="-HgeQT6ilEQTKK5qact2-1" vertex="1">
          <mxGeometry x="120" width="10" height="40" as="geometry" />
        </mxCell>
        <mxCell id="cBVyUDvvDOi_Fv5vH1XP-13" value="" style="triangle;whiteSpace=wrap;html=1;direction=south;fillColor=#ffe6cc;strokeColor=#d79b00;" parent="-HgeQT6ilEQTKK5qact2-1" vertex="1">
          <mxGeometry x="150" width="10" height="40" as="geometry" />
        </mxCell>
        <mxCell id="cBVyUDvvDOi_Fv5vH1XP-14" value="" style="triangle;whiteSpace=wrap;html=1;direction=south;fillColor=#ffe6cc;strokeColor=#d79b00;" parent="-HgeQT6ilEQTKK5qact2-1" vertex="1">
          <mxGeometry x="180" width="10" height="40" as="geometry" />
        </mxCell>
        <mxCell id="cBVyUDvvDOi_Fv5vH1XP-15" value="" style="triangle;whiteSpace=wrap;html=1;direction=south;fillColor=#ffe6cc;strokeColor=#d79b00;" parent="-HgeQT6ilEQTKK5qact2-1" vertex="1">
          <mxGeometry x="210" width="10" height="40" as="geometry" />
        </mxCell>
        <mxCell id="cBVyUDvvDOi_Fv5vH1XP-16" value="" style="triangle;whiteSpace=wrap;html=1;direction=south;fillColor=#ffe6cc;strokeColor=#d79b00;" parent="-HgeQT6ilEQTKK5qact2-1" vertex="1">
          <mxGeometry x="240" width="10" height="40" as="geometry" />
        </mxCell>
        <mxCell id="cBVyUDvvDOi_Fv5vH1XP-17" value="" style="triangle;whiteSpace=wrap;html=1;direction=south;fillColor=#ffe6cc;strokeColor=#d79b00;" parent="-HgeQT6ilEQTKK5qact2-1" vertex="1">
          <mxGeometry x="270" width="10" height="40" as="geometry" />
        </mxCell>
        <mxCell id="cBVyUDvvDOi_Fv5vH1XP-18" value="" style="triangle;whiteSpace=wrap;html=1;direction=south;fillColor=#ffe6cc;strokeColor=#d79b00;" parent="-HgeQT6ilEQTKK5qact2-1" vertex="1">
          <mxGeometry x="300" width="10" height="40" as="geometry" />
        </mxCell>
        <mxCell id="cBVyUDvvDOi_Fv5vH1XP-19" value="" style="triangle;whiteSpace=wrap;html=1;direction=south;fillColor=#ffe6cc;strokeColor=#d79b00;" parent="-HgeQT6ilEQTKK5qact2-1" vertex="1">
          <mxGeometry x="330" width="10" height="40" as="geometry" />
        </mxCell>
        <mxCell id="cBVyUDvvDOi_Fv5vH1XP-20" value="" style="triangle;whiteSpace=wrap;html=1;direction=south;fillColor=#ffe6cc;strokeColor=#d79b00;" parent="-HgeQT6ilEQTKK5qact2-1" vertex="1">
          <mxGeometry x="360" width="10" height="40" as="geometry" />
        </mxCell>
        <mxCell id="cBVyUDvvDOi_Fv5vH1XP-21" value="" style="triangle;whiteSpace=wrap;html=1;direction=south;fillColor=#ffe6cc;strokeColor=#d79b00;" parent="-HgeQT6ilEQTKK5qact2-1" vertex="1">
          <mxGeometry x="390" width="10" height="40" as="geometry" />
        </mxCell>
        <mxCell id="cBVyUDvvDOi_Fv5vH1XP-22" value="" style="triangle;whiteSpace=wrap;html=1;direction=south;fillColor=#ffe6cc;strokeColor=#d79b00;" parent="-HgeQT6ilEQTKK5qact2-1" vertex="1">
          <mxGeometry x="420" width="10" height="40" as="geometry" />
        </mxCell>
        <mxCell id="cBVyUDvvDOi_Fv5vH1XP-23" value="" style="triangle;whiteSpace=wrap;html=1;direction=south;fillColor=#ffe6cc;strokeColor=#d79b00;" parent="-HgeQT6ilEQTKK5qact2-1" vertex="1">
          <mxGeometry x="450" width="10" height="40" as="geometry" />
        </mxCell>
        <mxCell id="cBVyUDvvDOi_Fv5vH1XP-24" value="" style="triangle;whiteSpace=wrap;html=1;direction=south;fillColor=#ffe6cc;strokeColor=#d79b00;" parent="-HgeQT6ilEQTKK5qact2-1" vertex="1">
          <mxGeometry x="480" width="10" height="40" as="geometry" />
        </mxCell>
        <mxCell id="cBVyUDvvDOi_Fv5vH1XP-25" value="" style="triangle;whiteSpace=wrap;html=1;direction=south;fillColor=#ffe6cc;strokeColor=#d79b00;" parent="-HgeQT6ilEQTKK5qact2-1" vertex="1">
          <mxGeometry x="510" width="10" height="40" as="geometry" />
        </mxCell>
        <mxCell id="-HgeQT6ilEQTKK5qact2-21" value="started1.setRelease()" style="rounded=0;whiteSpace=wrap;html=1;fillColor=#fff2cc;strokeColor=#d6b656;fontSize=15;" parent="1" vertex="1">
          <mxGeometry x="180" y="200" width="520" height="40" as="geometry" />
        </mxCell>
        <mxCell id="-HgeQT6ilEQTKK5qact2-3" value="" style="triangle;whiteSpace=wrap;html=1;direction=south;fillColor=#fff2cc;strokeColor=#d6b656;rotation=-180;container=0;" parent="1" vertex="1">
          <mxGeometry x="690" y="160" width="10" height="40" as="geometry" />
        </mxCell>
        <mxCell id="-HgeQT6ilEQTKK5qact2-4" value="" style="triangle;whiteSpace=wrap;html=1;direction=south;fillColor=#fff2cc;strokeColor=#d6b656;rotation=-180;container=0;" parent="1" vertex="1">
          <mxGeometry x="660" y="160" width="10" height="40" as="geometry" />
        </mxCell>
        <mxCell id="-HgeQT6ilEQTKK5qact2-5" value="" style="triangle;whiteSpace=wrap;html=1;direction=south;fillColor=#fff2cc;strokeColor=#d6b656;rotation=-180;container=0;" parent="1" vertex="1">
          <mxGeometry x="630" y="160" width="10" height="40" as="geometry" />
        </mxCell>
        <mxCell id="-HgeQT6ilEQTKK5qact2-6" value="" style="triangle;whiteSpace=wrap;html=1;direction=south;fillColor=#fff2cc;strokeColor=#d6b656;rotation=-180;container=0;" parent="1" vertex="1">
          <mxGeometry x="600" y="160" width="10" height="40" as="geometry" />
        </mxCell>
        <mxCell id="-HgeQT6ilEQTKK5qact2-7" value="" style="triangle;whiteSpace=wrap;html=1;direction=south;fillColor=#fff2cc;strokeColor=#d6b656;rotation=-180;container=0;" parent="1" vertex="1">
          <mxGeometry x="570" y="160" width="10" height="40" as="geometry" />
        </mxCell>
        <mxCell id="-HgeQT6ilEQTKK5qact2-8" value="" style="triangle;whiteSpace=wrap;html=1;direction=south;fillColor=#fff2cc;strokeColor=#d6b656;rotation=-180;container=0;" parent="1" vertex="1">
          <mxGeometry x="540" y="160" width="10" height="40" as="geometry" />
        </mxCell>
        <mxCell id="-HgeQT6ilEQTKK5qact2-9" value="" style="triangle;whiteSpace=wrap;html=1;direction=south;fillColor=#fff2cc;strokeColor=#d6b656;rotation=-180;container=0;" parent="1" vertex="1">
          <mxGeometry x="510" y="160" width="10" height="40" as="geometry" />
        </mxCell>
        <mxCell id="-HgeQT6ilEQTKK5qact2-10" value="" style="triangle;whiteSpace=wrap;html=1;direction=south;fillColor=#fff2cc;strokeColor=#d6b656;rotation=-180;container=0;" parent="1" vertex="1">
          <mxGeometry x="480" y="160" width="10" height="40" as="geometry" />
        </mxCell>
        <mxCell id="-HgeQT6ilEQTKK5qact2-11" value="" style="triangle;whiteSpace=wrap;html=1;direction=south;fillColor=#fff2cc;strokeColor=#d6b656;rotation=-180;container=0;" parent="1" vertex="1">
          <mxGeometry x="450" y="160" width="10" height="40" as="geometry" />
        </mxCell>
        <mxCell id="-HgeQT6ilEQTKK5qact2-12" value="" style="triangle;whiteSpace=wrap;html=1;direction=south;fillColor=#fff2cc;strokeColor=#d6b656;rotation=-180;container=0;" parent="1" vertex="1">
          <mxGeometry x="420" y="160" width="10" height="40" as="geometry" />
        </mxCell>
        <mxCell id="-HgeQT6ilEQTKK5qact2-13" value="" style="triangle;whiteSpace=wrap;html=1;direction=south;fillColor=#fff2cc;strokeColor=#d6b656;rotation=-180;container=0;" parent="1" vertex="1">
          <mxGeometry x="390" y="160" width="10" height="40" as="geometry" />
        </mxCell>
        <mxCell id="-HgeQT6ilEQTKK5qact2-14" value="" style="triangle;whiteSpace=wrap;html=1;direction=south;fillColor=#fff2cc;strokeColor=#d6b656;rotation=-180;container=0;" parent="1" vertex="1">
          <mxGeometry x="360" y="160" width="10" height="40" as="geometry" />
        </mxCell>
        <mxCell id="-HgeQT6ilEQTKK5qact2-15" value="" style="triangle;whiteSpace=wrap;html=1;direction=south;fillColor=#fff2cc;strokeColor=#d6b656;rotation=-180;container=0;" parent="1" vertex="1">
          <mxGeometry x="330" y="160" width="10" height="40" as="geometry" />
        </mxCell>
        <mxCell id="-HgeQT6ilEQTKK5qact2-16" value="" style="triangle;whiteSpace=wrap;html=1;direction=south;fillColor=#fff2cc;strokeColor=#d6b656;rotation=-180;container=0;" parent="1" vertex="1">
          <mxGeometry x="300" y="160" width="10" height="40" as="geometry" />
        </mxCell>
        <mxCell id="-HgeQT6ilEQTKK5qact2-17" value="" style="triangle;whiteSpace=wrap;html=1;direction=south;fillColor=#fff2cc;strokeColor=#d6b656;rotation=-180;container=0;" parent="1" vertex="1">
          <mxGeometry x="270" y="160" width="10" height="40" as="geometry" />
        </mxCell>
        <mxCell id="-HgeQT6ilEQTKK5qact2-18" value="" style="triangle;whiteSpace=wrap;html=1;direction=south;fillColor=#fff2cc;strokeColor=#d6b656;rotation=-180;container=0;" parent="1" vertex="1">
          <mxGeometry x="240" y="160" width="10" height="40" as="geometry" />
        </mxCell>
        <mxCell id="-HgeQT6ilEQTKK5qact2-19" value="" style="triangle;whiteSpace=wrap;html=1;direction=south;fillColor=#fff2cc;strokeColor=#d6b656;rotation=-180;container=0;" parent="1" vertex="1">
          <mxGeometry x="210" y="160" width="10" height="40" as="geometry" />
        </mxCell>
        <mxCell id="-HgeQT6ilEQTKK5qact2-20" value="" style="triangle;whiteSpace=wrap;html=1;direction=south;fillColor=#fff2cc;strokeColor=#d6b656;rotation=-180;container=0;" parent="1" vertex="1">
          <mxGeometry x="180" y="160" width="10" height="40" as="geometry" />
        </mxCell>
      </root>
    </mxGraphModel>
  </diagram>
</mxfile>
